<svg className="fill-accent-blue" width="20px" height="20px" zoomAndPan="magnify" viewBox="0 0 810 809.999993" preserveAspectRatio="xMidYMid meet" version="1.0"><defs>
    <clipPath id="42f0bbd39a"><path d="M 182.03125 162 L 628 162 L 628 600.941406 L 182.03125 600.941406 Z M 182.03125 162 " clipRule="nonzero"/></clipPath>
    <clipPath id="e1a312a0d5"><path d="M 220.28125 162 L 589.71875 162 C 599.863281 162 609.59375 166.03125 616.765625 173.203125 C 623.9375 180.375 627.96875 190.105469 627.96875 200.25 L 627.96875 562.691406 C 627.96875 572.835938 623.9375 582.5625 616.765625 589.738281 C 609.59375 596.910156 599.863281 600.941406 589.71875 600.941406 L 220.28125 600.941406 C 210.136719 600.941406 200.40625 596.910156 193.234375 589.738281 C 186.0625 582.5625 182.03125 572.835938 182.03125 562.691406 L 182.03125 200.25 C 182.03125 190.105469 186.0625 180.375 193.234375 173.203125 C 200.40625 166.03125 210.136719 162 220.28125 162 Z M 220.28125 162 " clipRule="nonzero"/></clipPath>
    <clipPath id="c7ae287a16"><path d="M 167 480 L 381 480 L 381 726 L 167 726 Z M 167 480 " clipRule="nonzero"/></clipPath>
    <clipPath id="37cce30e0d"><path d="M 167.933594 480.6875 L 381.085938 598.109375 L 278.492188 784.34375 L 65.339844 666.921875 Z M 167.933594 480.6875 " clipRule="nonzero"/></clipPath>
    <clipPath id="8d262d0206"><path d="M 171.757812 725.546875 L 380.773438 597.9375 L 167.933594 480.6875 Z M 171.757812 725.546875 " clipRule="nonzero"/></clipPath>
    <clipPath id="951f95fecf"><path d="M 423 479 L 636 479 L 636 725 L 423 725 Z M 423 479 " clipRule="nonzero"/></clipPath>
    <clipPath id="20ec417e27"><path d="M 423.480469 598.828125 L 635.613281 479.574219 L 739.808594 664.921875 L 527.671875 784.171875 Z M 423.480469 598.828125 " clipRule="nonzero"/></clipPath>
    <clipPath id="8b8040f67b"><path d="M 633.585938 724.632812 L 635.304688 479.75 L 423.480469 598.828125 Z M 633.585938 724.632812 " clipRule="nonzero"/></clipPath></defs>
    <path fill="#0f1729" d="M 330.34375 101.25 L 479.65625 101.25 C 507.28125 101.25 530.082031 101.25 548.644531 102.789062 C 567.925781 104.390625 585.640625 107.828125 602.230469 116.449219 C 626.890625 129.257812 646.996094 149.363281 659.800781 174.019531 C 668.417969 190.609375 671.859375 208.324219 673.460938 227.609375 C 675 246.171875 675 268.96875 675 296.59375 L 675 594.765625 C 675 627.261719 675 653.921875 673.222656 674.1875 C 671.539062 693.285156 667.839844 715.796875 652.996094 732.089844 C 634.753906 752.109375 608.015625 762.15625 581.109375 759.101562 C 559.207031 756.613281 541.597656 742.109375 527.753906 728.839844 C 513.074219 714.769531 495.515625 694.699219 474.117188 670.246094 L 461.386719 655.695312 C 446.722656 638.933594 437.132812 628.023438 429.1875 620.394531 C 421.492188 613.003906 417.84375 611.234375 416.007812 610.601562 C 408.875 608.140625 401.125 608.140625 393.992188 610.601562 C 392.15625 611.234375 388.507812 613.003906 380.8125 620.394531 C 372.867188 628.023438 363.277344 638.933594 348.613281 655.695312 L 335.882812 670.246094 C 314.484375 694.699219 296.925781 714.765625 282.242188 728.839844 C 268.402344 742.109375 250.792969 756.613281 228.890625 759.101562 C 201.984375 762.15625 175.246094 752.109375 157.007812 732.089844 C 142.160156 715.796875 138.457031 693.285156 136.78125 674.1875 C 135 653.921875 135 627.261719 135 594.765625 L 135 296.59375 C 135 268.96875 135 246.171875 136.539062 227.609375 C 138.140625 208.324219 141.578125 190.609375 150.199219 174.019531 C 163.007812 149.363281 183.113281 129.257812 207.769531 116.449219 C 224.359375 107.828125 242.074219 104.390625 261.359375 102.789062 C 279.921875 101.25 302.71875 101.25 330.34375 101.25 Z M 266.945312 170.058594 C 251.910156 171.308594 244.234375 173.570312 238.882812 176.347656 C 226.554688 182.753906 216.503906 192.804688 210.097656 205.132812 C 207.320312 210.484375 205.058594 218.160156 203.808594 233.195312 C 202.527344 248.632812 202.5 268.617188 202.5 298.011719 L 202.5 593.074219 C 202.5 627.675781 202.53125 651.335938 204.019531 668.277344 C 205.246094 682.21875 207.199219 686.597656 207.375 687.128906 C 210.84375 690.636719 215.671875 692.453125 220.59375 692.09375 C 221.074219 691.8125 225.429688 689.804688 235.53125 680.117188 C 247.808594 668.347656 263.410156 650.5625 286.195312 624.523438 L 298.753906 610.171875 C 312.21875 594.78125 323.738281 581.613281 334.0625 571.703125 C 344.878906 561.320312 356.84375 552.011719 371.972656 546.792969 C 393.375 539.410156 416.625 539.410156 438.027344 546.792969 C 453.15625 552.011719 465.121094 561.320312 475.9375 571.703125 C 486.261719 581.613281 497.78125 594.78125 511.25 610.171875 L 523.804688 624.523438 C 546.589844 650.5625 562.195312 668.347656 574.46875 680.117188 C 584.570312 689.804688 588.925781 691.8125 589.40625 692.09375 C 594.328125 692.453125 599.15625 690.636719 602.625 687.128906 C 602.796875 686.597656 604.753906 682.21875 605.976562 668.277344 C 607.46875 651.335938 607.5 627.675781 607.5 593.074219 L 607.5 298.011719 C 607.5 268.617188 607.472656 248.632812 606.191406 233.195312 C 604.941406 218.160156 602.679688 210.484375 599.898438 205.132812 C 593.496094 192.804688 583.441406 182.753906 571.113281 176.347656 C 565.765625 173.570312 558.089844 171.308594 543.054688 170.058594 C 527.617188 168.777344 507.632812 168.75 478.238281 168.75 L 331.761719 168.75 C 302.367188 168.75 282.382812 168.777344 266.945312 170.058594 Z M 266.945312 170.058594 " fillOpacity="1" fillRule="nonzero"/><g clipPath="url(#42f0bbd39a)"><g clipPath="url(#e1a312a0d5)">
        <path d="M 182.03125 162 L 627.828125 162 L 627.828125 600.941406 L 182.03125 600.941406 Z M 182.03125 162 " fillOpacity="1" fillRule="nonzero"/></g></g><g clipPath="url(#c7ae287a16)"><g clipPath="url(#37cce30e0d)"><g clipPath="url(#8d262d0206)">
        <path d="M 167.933594 480.6875 L 381.085938 598.109375 L 278.492188 784.34375 L 65.339844 666.921875 Z M 167.933594 480.6875 " fillOpacity="1" fillRule="nonzero"/></g></g></g><g clipPath="url(#951f95fecf)"><g clipPath="url(#20ec417e27)"><g clipPath="url(#8b8040f67b)">
        <path d="M 423.480469 598.828125 L 635.613281 479.574219 L 739.808594 664.921875 L 527.671875 784.171875 Z M 423.480469 598.828125 " fillOpacity="1" fillRule="nonzero"/></g></g></g>
</svg>