<svg className="fill-accent-blue" width="20px" height="20px" zoomAndPan="magnify" viewBox="0 0 810 809.999993" preserveAspectRatio="xMidYMid meet" version="1.0"><defs>
    <clipPath id="c4e76ccd76"><path d="M 93.773438 96.136719 L 716 96.136719 L 716 554.839844 L 93.773438 554.839844 Z M 93.773438 96.136719 " clip-rule="nonzero"/></clipPath>
    <clipPath id="266b9a98a7"><path d="M 132.023438 96.136719 L 677.976562 96.136719 C 688.121094 96.136719 697.851562 100.164062 705.023438 107.339844 C 712.195312 114.511719 716.226562 124.242188 716.226562 134.386719 L 716.226562 516.589844 C 716.226562 526.734375 712.195312 536.464844 705.023438 543.636719 C 697.851562 550.8125 688.121094 554.839844 677.976562 554.839844 L 132.023438 554.839844 C 121.878906 554.839844 112.148438 550.8125 104.976562 543.636719 C 97.804688 536.464844 93.773438 526.734375 93.773438 516.589844 L 93.773438 134.386719 C 93.773438 124.242188 97.804688 114.511719 104.976562 107.339844 C 112.148438 100.164062 121.878906 96.136719 132.023438 96.136719 Z M 132.023438 96.136719 " clip-rule="nonzero"/></clipPath>
    <clipPath id="3d66afda96"><path d="M 292.945312 516.375 L 536 516.375 L 536 729 L 292.945312 729 Z M 292.945312 516.375 " clip-rule="nonzero"/></clipPath>
    <clipPath id="c1abe79349"><path d="M 414.445312 729 L 535.945312 516.375 L 292.945312 516.375 Z M 414.445312 729 " clip-rule="nonzero"/></clipPath></defs>
    <path d="M 405 101.25 C 357.539062 101.25 313.859375 103.140625 274.878906 106.011719 C 216.535156 110.316406 195.894531 112.375 171.285156 125.886719 C 149.507812 137.84375 123.773438 165.542969 113.453125 188.140625 C 101.898438 213.4375 101.25 238.691406 101.25 308.417969 L 101.25 365.027344 C 101.25 403.699219 101.398438 418.375 103.582031 429.972656 C 113.867188 484.628906 156.621094 527.382812 211.277344 537.671875 C 222.875 539.855469 237.546875 540 276.222656 540 C 276.574219 540 276.933594 540 277.300781 540 C 281.203125 539.992188 286.054688 539.988281 290.789062 540.640625 C 310.949219 543.445312 328.769531 555.195312 339.289062 572.621094 C 341.753906 576.714844 343.660156 581.175781 345.191406 584.765625 C 345.335938 585.101562 345.476562 585.433594 345.613281 585.753906 L 361.105469 621.902344 C 373.304688 650.367188 381.5625 669.539062 388.734375 682.820312 C 394.554688 693.601562 397.667969 696.476562 398.046875 696.859375 C 402.464844 698.859375 407.535156 698.859375 411.957031 696.859375 C 412.332031 696.476562 415.445312 693.601562 421.265625 682.820312 C 428.441406 669.539062 436.699219 650.367188 448.894531 621.902344 L 464.386719 585.753906 C 464.523438 585.433594 464.667969 585.101562 464.808594 584.765625 C 466.339844 581.175781 468.242188 576.714844 470.714844 572.621094 C 481.230469 555.195312 499.050781 543.445312 519.214844 540.640625 C 523.945312 539.988281 528.796875 539.992188 532.699219 540 C 533.066406 540 533.425781 540 533.777344 540 C 572.453125 540 587.125 539.855469 598.722656 537.671875 C 653.378906 527.382812 696.132812 484.628906 706.421875 429.972656 C 708.605469 418.375 708.75 403.699219 708.75 365.027344 L 708.75 308.417969 C 708.75 238.691406 708.101562 213.4375 696.546875 188.140625 C 686.226562 165.542969 660.496094 137.84375 638.714844 125.886719 C 614.105469 112.375 593.464844 110.316406 535.125 106.011719 C 496.140625 103.140625 452.464844 101.25 405 101.25 Z M 269.914062 38.695312 C 310.414062 35.710938 355.753906 33.75 405 33.75 C 454.25 33.75 499.585938 35.710938 540.085938 38.695312 C 541.59375 38.808594 543.082031 38.917969 544.558594 39.023438 C 597.277344 42.898438 632.527344 45.488281 671.199219 66.71875 C 705.714844 85.664062 741.589844 124.28125 757.949219 160.09375 C 776.285156 200.246094 776.273438 240.886719 776.253906 302.195312 C 776.25 304.246094 776.25 306.320312 776.25 308.417969 L 776.25 365.027344 C 776.25 366.375 776.25 367.703125 776.25 369.011719 C 776.257812 402.332031 776.261719 423.84375 772.757812 442.457031 C 757.324219 524.441406 693.195312 588.574219 611.210938 604.007812 C 592.59375 607.511719 571.085938 607.507812 537.761719 607.5 C 536.453125 607.5 535.125 607.5 533.777344 607.5 C 531.074219 607.5 529.675781 607.503906 528.652344 607.53125 C 528.609375 607.53125 528.566406 607.53125 528.523438 607.535156 C 528.511719 607.566406 528.492188 607.609375 528.472656 607.648438 C 528.046875 608.578125 527.492188 609.863281 526.429688 612.347656 L 510.273438 650.039062 C 498.910156 676.558594 489.464844 698.597656 480.65625 714.902344 C 472.15625 730.640625 460.71875 748.164062 442.058594 757.285156 C 418.675781 768.71875 391.324219 768.71875 367.941406 757.285156 C 349.28125 748.164062 337.847656 730.640625 329.34375 714.902344 C 320.535156 698.597656 311.089844 676.558594 299.726562 650.039062 L 283.574219 612.347656 C 282.507812 609.863281 281.953125 608.578125 281.527344 607.648438 C 281.507812 607.609375 281.492188 607.566406 281.472656 607.535156 C 281.433594 607.53125 281.390625 607.53125 281.347656 607.53125 C 280.324219 607.503906 278.925781 607.5 276.222656 607.5 C 274.878906 607.5 273.546875 607.5 272.238281 607.5 C 238.914062 607.507812 217.40625 607.511719 198.792969 604.007812 C 116.808594 588.574219 52.675781 524.441406 37.246094 442.457031 C 33.742188 423.84375 33.746094 402.332031 33.75 369.011719 C 33.75 367.703125 33.75 366.375 33.75 365.027344 L 33.75 308.417969 C 33.75 306.320312 33.75 304.246094 33.75 302.195312 C 33.730469 240.886719 33.714844 200.246094 52.054688 160.09375 C 68.414062 124.28125 104.285156 85.664062 138.800781 66.71875 C 177.472656 45.488281 212.722656 42.898438 265.441406 39.023438 C 266.917969 38.917969 268.410156 38.808594 269.914062 38.695312 Z M 269.914062 38.695312 " fill-opacity="1" fill-rule="evenodd"/>
    <g clip-path="url(#c4e76ccd76)"><g clip-path="url(#266b9a98a7)"><path fill="#0f1729" d="M 93.773438 96.136719 L 715.535156 96.136719 L 715.535156 554.839844 L 93.773438 554.839844 Z M 93.773438 96.136719 " fill-opacity="1" fill-rule="nonzero"/></g></g>
    <g clip-path="url(#3d66afda96)"><g clip-path="url(#c1abe79349)"><path fill="#0f1729" d="M 292.945312 516.375 L 536.304688 516.375 L 536.304688 729 L 292.945312 729 Z M 292.945312 516.375 " fill-opacity="1" fill-rule="nonzero"/></g></g>
</svg>