<svg className="fill-accent-red" width="20px" height="20px" zoomAndPan="magnify" viewBox="0 0 810 809.999993" preserveAspectRatio="xMidYMid meet" version="1.0"><defs>
    <clipPath id="946783f8b7"><path d="M 92 177.246094 L 729 177.246094 L 729 713.253906 L 92 713.253906 Z M 92 177.246094 " clip-rule="nonzero"/></clipPath>
    <clipPath id="09be6c0952"><path d="M 116.566406 262.828125 C 66.722656 344.660156 101.289062 424.304688 147.066406 466.578125 L 414.730469 713.253906 L 676.746094 467.457031 C 719.320312 421.984375 735.175781 373.75 726.578125 320.039062 C 714.058594 245.742188 650.320312 188.097656 571.582031 179.863281 C 523.289062 174.945312 476.640625 187.996094 440.230469 217.0625 C 430.433594 224.878906 421.671875 233.621094 414.039062 243.125 C 404.984375 232.304688 394.363281 222.410156 382.351562 213.636719 C 340.484375 183.074219 287.1875 171.140625 235.996094 180.375 C 187.511719 189.371094 143.988281 219.414062 116.566406 262.828125 Z M 116.566406 262.828125 " clip-rule="nonzero"/></clipPath></defs>
    <path fill="#0f1729" d="M 258.78125 127.738281 C 146.347656 127.738281 58.425781 225.460938 58.425781 341.078125 C 58.425781 401.214844 68.046875 450.734375 103.921875 502.835938 C 138.152344 552.554688 195.070312 602.722656 283.390625 668.910156 L 404.988281 751.550781 L 526.574219 668.921875 C 614.898438 602.730469 671.824219 552.554688 706.054688 502.835938 C 741.925781 450.734375 751.550781 401.214844 751.550781 341.078125 C 751.550781 225.460938 663.625 127.738281 551.195312 127.738281 C 494.777344 127.738281 445.945312 150.722656 404.988281 192.308594 C 364.03125 150.722656 315.195312 127.738281 258.78125 127.738281 Z M 258.78125 197.050781 C 189.269531 197.050781 127.738281 258.929688 127.738281 341.078125 C 127.738281 360.105469 128.8125 376.828125 131.5 392.25 C 135.996094 418.085938 145 440.273438 161.011719 463.53125 C 188.222656 503.054688 236.855469 547.425781 324.984375 613.46875 L 404.988281 673.550781 L 484.988281 613.46875 C 573.117188 547.425781 621.75 503.054688 648.964844 463.53125 C 674.53125 426.390625 682.238281 391.972656 682.238281 341.078125 C 682.238281 258.929688 620.703125 197.050781 551.195312 197.050781 C 508.371094 197.050781 469.105469 217.367188 432.828125 266.304688 C 426.289062 275.121094 415.960938 280.320312 404.988281 280.320312 C 394.011719 280.320312 383.683594 275.121094 377.148438 266.304688 C 340.871094 217.367188 301.605469 197.050781 258.78125 197.050781 Z M 258.78125 197.050781 " fill-opacity="1" fill-rule="evenodd"/>
    <g clip-path="url(#946783f8b7)"><g clip-path="url(#09be6c0952)"><path fill="#0f1729" d="M 91.285156 177.246094 L 729.890625 177.246094 L 729.890625 713.253906 L 91.285156 713.253906 Z M 91.285156 177.246094 " fill-opacity="1" fill-rule="nonzero"/></g></g>
</svg>