<?xml version="1.0" encoding="iso-8859-1"?>
<!-- Uploaded to: SVG Repo, www.svgrepo.com, Generator: SVG Repo Mixer Tools -->
<!DOCTYPE svg PUBLIC "-//W3C//DTD SVG 1.1//EN" "http://www.w3.org/Graphics/SVG/1.1/DTD/svg11.dtd">
<svg height="800px" width="800px" version="1.1" id="Capa_1" xmlns="http://www.w3.org/2000/svg" xmlns:xlink="http://www.w3.org/1999/xlink" 
	 viewBox="0 0 250.574 250.574" xml:space="preserve">
<path style="fill:#000002;" d="M243.074,206.6h-15.493v-78.833c0-7.444-6.056-13.5-13.5-13.5h-34.196c-7.444,0-13.5,6.056-13.5,13.5
	V206.6h-7.138V47.72c0-7.444-6.056-13.5-13.5-13.5h-34.195c-7.444,0-13.5,6.056-13.5,13.5V206.6h-7.138V97.749
	c0-7.444-6.056-13.5-13.5-13.5H43.218c-7.444,0-13.5,6.056-13.5,13.5V206.6H17.5c-1.355,0-2.5-1.145-2.5-2.5V36.475
	c0-4.143-3.358-7.5-7.5-7.5S0,32.332,0,36.475V204.1c0,9.649,7.851,17.5,17.5,17.5h225.574c4.142,0,7.5-3.357,7.5-7.5
	C250.574,209.957,247.216,206.6,243.074,206.6z M181.385,129.267h31.196V206.6h-31.196V129.267z M113.052,49.22h31.195V206.6
	h-31.195V49.22z M44.718,99.249h31.196V206.6H44.718V99.249z"/>
</svg>