<svg width="25px" height="25px" zoomAndPan="magnify" viewBox="0 0 810 809.999993" preserveAspectRatio="xMidYMid meet" version="1.0"><defs>
    <clipPath id="1144d64f8a"><path d="M 344.25 103 L 465.75 103 L 465.75 706.691406 L 344.25 706.691406 Z M 344.25 103 " clipRule="nonzero"/></clipPath>
    <clipPath id="62052300db"><path d="M 344.25 164.054688 C 344.25 130.503906 371.449219 103.304688 405 103.304688 C 438.550781 103.304688 465.75 130.503906 465.75 164.054688 L 465.75 645.941406 C 465.75 679.496094 438.550781 706.691406 405 706.691406 C 371.449219 706.691406 344.25 679.496094 344.25 645.941406 Z M 344.25 164.054688 " clipRule="nonzero"/></clipPath>
    <clipPath id="5f051555cd"><path d="M 104.324219 438.535156 L 225.824219 438.535156 L 225.824219 728.996094 L 104.324219 728.996094 Z M 104.324219 438.535156 " clipRule="nonzero"/></clipPath>
    <clipPath id="29c5cf95b3"><path d="M 104.324219 499.511719 C 104.324219 465.957031 131.523438 438.761719 165.074219 438.761719 C 198.625 438.761719 225.824219 465.957031 225.824219 499.511719 L 225.824219 668.246094 C 225.824219 701.796875 198.625 728.996094 165.074219 728.996094 C 131.523438 728.996094 104.324219 701.796875 104.324219 668.246094 Z M 104.324219 499.511719 " clipRule="nonzero"/></clipPath>
    <clipPath id="a593707e50"><path d="M 584.25 265.304688 L 705.75 265.304688 L 705.75 729 L 584.25 729 Z M 584.25 265.304688 " clipRule="nonzero"/></clipPath>
    <clipPath id="ab9c45ef24"><path d="M 584.25 326.316406 C 584.25 292.765625 611.449219 265.566406 645 265.566406 C 678.550781 265.566406 705.75 292.765625 705.75 326.316406 L 705.75 668.25 C 705.75 701.800781 678.550781 729 645 729 C 611.449219 729 584.25 701.800781 584.25 668.25 Z M 584.25 326.316406 " clipRule="nonzero"/></clipPath></defs>
    <path d="M 396.625 67.484375 C 447.917969 67.484375 489.5 109.066406 489.5 160.359375 L 489.5 649.6875 C 489.5 700.980469 447.917969 742.5625 396.625 742.5625 C 345.332031 742.5625 303.75 700.980469 303.75 649.6875 L 303.75 160.359375 C 303.75 109.066406 345.332031 67.484375 396.625 67.484375 Z M 632.875 236.234375 C 684.167969 236.234375 725.75 277.816406 725.75 329.109375 L 725.75 649.6875 C 725.75 700.980469 684.167969 742.5625 632.875 742.5625 C 581.582031 742.5625 540 700.980469 540 649.6875 L 540 329.109375 C 540 277.816406 581.582031 236.234375 632.875 236.234375 Z M 160.375 404.984375 C 211.667969 404.984375 253.25 446.566406 253.25 497.859375 L 253.25 649.6875 C 253.25 700.980469 211.667969 742.5625 160.375 742.5625 C 109.082031 742.5625 67.5 700.980469 67.5 649.6875 L 67.5 497.859375 C 67.5 446.566406 109.082031 404.984375 160.375 404.984375 Z M 396.625 118.109375 C 373.292969 118.109375 354.375 137.027344 354.375 160.359375 L 354.375 649.6875 C 354.375 673.019531 373.292969 691.9375 396.625 691.9375 C 419.960938 691.9375 438.875 673.019531 438.875 649.6875 L 438.875 160.359375 C 438.875 137.027344 419.960938 118.109375 396.625 118.109375 Z M 632.875 286.859375 C 609.542969 286.859375 590.625 305.777344 590.625 329.109375 L 590.625 649.6875 C 590.625 673.019531 609.542969 691.9375 632.875 691.9375 C 656.210938 691.9375 675.125 673.019531 675.125 649.6875 L 675.125 329.109375 C 675.125 305.777344 656.210938 286.859375 632.875 286.859375 Z M 160.375 455.609375 C 137.042969 455.609375 118.125 474.527344 118.125 497.859375 L 118.125 649.6875 C 118.125 673.019531 137.042969 691.9375 160.375 691.9375 C 183.710938 691.9375 202.625 673.019531 202.625 649.6875 L 202.625 497.859375 C 202.625 474.527344 183.710938 455.609375 160.375 455.609375 Z M 160.375 455.609375 " fillOpacity="1" fillRule="nonzero"/>
    <g clipPath="url(#1144d64f8a)"><g clipPath="url(#62052300db)"><path d="M 344.25 706.691406 L 344.25 103.464844 L 465.75 103.464844 L 465.75 706.691406 Z M 344.25 706.691406 " fillOpacity="1" fillRule="nonzero"/></g></g>
    <g clipPath="url(#5f051555cd)"><g clipPath="url(#29c5cf95b3)"><path d="M 104.324219 728.996094 L 104.324219 438.535156 L 225.824219 438.535156 L 225.824219 728.996094 Z M 104.324219 728.996094 " fillOpacity="1" fillRule="nonzero"/></g></g>
    <g clipPath="url(#a593707e50)"><g clipPath="url(#ab9c45ef24)"><path d="M 584.25 729 L 584.25 265.78125 L 705.75 265.78125 L 705.75 729 Z M 584.25 729 " fillOpacity="1" fillRule="nonzero"/></g></g>
</svg>